<mxfile host="app.diagrams.net" modified="2023-05-22T20:29:20.006Z" agent="Mozilla/5.0 (Windows NT 10.0; Win64; x64) AppleWebKit/537.36 (KHTML, like Gecko) Chrome/113.0.0.0 Safari/537.36" version="21.3.2" etag="mY2e5dg8NUY7nblIs_wx" type="github">
  <diagram name="Page-1" id="QEhUg_6D9ZG69IPAEyKT">
    <mxGraphModel>
      <root>
        <mxCell id="0" />
        <mxCell id="1" parent="0" />
      </root>
    </mxGraphModel>
  </diagram>
</mxfile>
